# xmcd CD database file
#
# Track frame offsets:
#	150
#	24813
#	45780
#	68238
#	78150
#	101888
#	127928
#	139568
#	165888
#	188433
#
# Disc length: 2768 seconds
#
# Revision: 0
# Processed by: cddbd v1.5.1PL0 Copyright (c) Steve Scherf et al.
# Submitted via: CDex 1.51
#
DISCID=650ace0a
DTITLE=Babik Reinhardt - All Love
DYEAR=1988
DGENRE=Jazz
TTITLE0=All Love
TTITLE1=Incertitude
TTITLE2=Mister Swing
TTITLE3=One More Time
TTITLE4=Wild Things
TTITLE5=Baccara
TTITLE6=Coltrane Memory
TTITLE7=Free Way
TTITLE8=Samois
TTITLE9=Canada Valse
EXTD=YEAR: 1988
EXTT0=
EXTT1=
EXTT2=
EXTT3=
EXTT4=
EXTT5=
EXTT6=
EXTT7=
EXTT8=
EXTT9=
PLAYORDER=
